<?xml version="1.0" encoding="UTF-8"?><svg xmlns="http://www.w3.org/2000/svg" xmlns:xlink="http://www.w3.org/1999/xlink" fill-opacity="1" color-rendering="auto" color-interpolation="auto" text-rendering="auto" stroke="black" stroke-linecap="square" width="743" stroke-miterlimit="10" shape-rendering="auto" stroke-opacity="1" fill="black" stroke-dasharray="none" font-weight="normal" stroke-width="1" height="630" font-family="'Dialog'" font-style="normal" stroke-linejoin="miter" font-size="12px" stroke-dashoffset="0" image-rendering="auto">
  <!--Generated by ySVG 2.5-->
  <defs id="genericDefs"/>
  <g>
    <defs id="defs1">
      <linearGradient x1="126.3057" gradientUnits="userSpaceOnUse" x2="260.6533" y1="70" y2="110" id="linearGradient1" spreadMethod="reflect">
        <stop stop-opacity="1" stop-color="rgb(232,238,247)" offset="0%"/>
        <stop stop-opacity="1" stop-color="rgb(183,201,227)" offset="100%"/>
      </linearGradient>
      <linearGradient x1="344.4922" gradientUnits="userSpaceOnUse" x2="435.5078" y1="70" y2="120" id="linearGradient2" spreadMethod="reflect">
        <stop stop-opacity="1" stop-color="rgb(232,238,247)" offset="0%"/>
        <stop stop-opacity="1" stop-color="rgb(183,201,227)" offset="100%"/>
      </linearGradient>
      <linearGradient x1="499.9922" gradientUnits="userSpaceOnUse" x2="640.0078" y1="70" y2="110" id="linearGradient3" spreadMethod="reflect">
        <stop stop-opacity="1" stop-color="rgb(232,238,247)" offset="0%"/>
        <stop stop-opacity="1" stop-color="rgb(183,201,227)" offset="100%"/>
      </linearGradient>
      <linearGradient x1="698.4932" gradientUnits="userSpaceOnUse" x2="832.8408" y1="70" y2="110" id="linearGradient4" spreadMethod="reflect">
        <stop stop-opacity="1" stop-color="rgb(232,238,247)" offset="0%"/>
        <stop stop-opacity="1" stop-color="rgb(183,201,227)" offset="100%"/>
      </linearGradient>
      <linearGradient x1="120.6377" gradientUnits="userSpaceOnUse" x2="260.6533" y1="160" y2="200" id="linearGradient5" spreadMethod="reflect">
        <stop stop-opacity="1" stop-color="rgb(232,238,247)" offset="0%"/>
        <stop stop-opacity="1" stop-color="rgb(183,201,227)" offset="100%"/>
      </linearGradient>
      <linearGradient x1="312.9902" gradientUnits="userSpaceOnUse" x2="467.0098" y1="160" y2="200" id="linearGradient6" spreadMethod="reflect">
        <stop stop-opacity="1" stop-color="rgb(232,238,247)" offset="0%"/>
        <stop stop-opacity="1" stop-color="rgb(183,201,227)" offset="100%"/>
      </linearGradient>
      <linearGradient x1="519.3467" gradientUnits="userSpaceOnUse" x2="648.6689" y1="160" y2="200" id="linearGradient7" spreadMethod="reflect">
        <stop stop-opacity="1" stop-color="rgb(232,238,247)" offset="0%"/>
        <stop stop-opacity="1" stop-color="rgb(183,201,227)" offset="100%"/>
      </linearGradient>
      <linearGradient x1="701.0059" gradientUnits="userSpaceOnUse" x2="830.3281" y1="160" y2="200" id="linearGradient8" spreadMethod="reflect">
        <stop stop-opacity="1" stop-color="rgb(232,238,247)" offset="0%"/>
        <stop stop-opacity="1" stop-color="rgb(183,201,227)" offset="100%"/>
      </linearGradient>
      <linearGradient x1="120.6377" gradientUnits="userSpaceOnUse" x2="260.6533" y1="250" y2="290" id="linearGradient9" spreadMethod="reflect">
        <stop stop-opacity="1" stop-color="rgb(232,238,247)" offset="0%"/>
        <stop stop-opacity="1" stop-color="rgb(183,201,227)" offset="100%"/>
      </linearGradient>
      <linearGradient x1="312.9902" gradientUnits="userSpaceOnUse" x2="467.0098" y1="250" y2="290" id="linearGradient10" spreadMethod="reflect">
        <stop stop-opacity="1" stop-color="rgb(232,238,247)" offset="0%"/>
        <stop stop-opacity="1" stop-color="rgb(183,201,227)" offset="100%"/>
      </linearGradient>
      <linearGradient x1="519.3467" gradientUnits="userSpaceOnUse" x2="648.6689" y1="250" y2="290" id="linearGradient11" spreadMethod="reflect">
        <stop stop-opacity="1" stop-color="rgb(232,238,247)" offset="0%"/>
        <stop stop-opacity="1" stop-color="rgb(183,201,227)" offset="100%"/>
      </linearGradient>
      <linearGradient x1="701.0059" gradientUnits="userSpaceOnUse" x2="830.3281" y1="250" y2="290" id="linearGradient12" spreadMethod="reflect">
        <stop stop-opacity="1" stop-color="rgb(232,238,247)" offset="0%"/>
        <stop stop-opacity="1" stop-color="rgb(183,201,227)" offset="100%"/>
      </linearGradient>
      <linearGradient x1="120.6377" gradientUnits="userSpaceOnUse" x2="260.6533" y1="333" y2="426" id="linearGradient13" spreadMethod="reflect">
        <stop stop-opacity="1" stop-color="rgb(232,238,247)" offset="0%"/>
        <stop stop-opacity="1" stop-color="rgb(183,201,227)" offset="100%"/>
      </linearGradient>
      <linearGradient x1="312.9902" gradientUnits="userSpaceOnUse" x2="467.0098" y1="340" y2="426" id="linearGradient14" spreadMethod="reflect">
        <stop stop-opacity="1" stop-color="rgb(232,238,247)" offset="0%"/>
        <stop stop-opacity="1" stop-color="rgb(183,201,227)" offset="100%"/>
      </linearGradient>
      <linearGradient x1="523.2998" gradientUnits="userSpaceOnUse" x2="648.6689" y1="340" y2="418.4" id="linearGradient15" spreadMethod="reflect">
        <stop stop-opacity="1" stop-color="rgb(232,238,247)" offset="0%"/>
        <stop stop-opacity="1" stop-color="rgb(183,201,227)" offset="100%"/>
      </linearGradient>
      <linearGradient x1="704.959" gradientUnits="userSpaceOnUse" x2="830.3281" y1="333" y2="418.4" id="linearGradient16" spreadMethod="reflect">
        <stop stop-opacity="1" stop-color="rgb(232,238,247)" offset="0%"/>
        <stop stop-opacity="1" stop-color="rgb(183,201,227)" offset="100%"/>
      </linearGradient>
      <linearGradient x1="120.6377" gradientUnits="userSpaceOnUse" x2="260.6533" y1="465" y2="505" id="linearGradient17" spreadMethod="reflect">
        <stop stop-opacity="1" stop-color="rgb(232,238,247)" offset="0%"/>
        <stop stop-opacity="1" stop-color="rgb(183,201,227)" offset="100%"/>
      </linearGradient>
      <linearGradient x1="312.9902" gradientUnits="userSpaceOnUse" x2="467.0098" y1="465" y2="505" id="linearGradient18" spreadMethod="reflect">
        <stop stop-opacity="1" stop-color="rgb(232,238,247)" offset="0%"/>
        <stop stop-opacity="1" stop-color="rgb(183,201,227)" offset="100%"/>
      </linearGradient>
      <linearGradient x1="519.3467" gradientUnits="userSpaceOnUse" x2="648.6689" y1="460" y2="510" id="linearGradient19" spreadMethod="reflect">
        <stop stop-opacity="1" stop-color="rgb(232,238,247)" offset="0%"/>
        <stop stop-opacity="1" stop-color="rgb(183,201,227)" offset="100%"/>
      </linearGradient>
      <linearGradient x1="704.959" gradientUnits="userSpaceOnUse" x2="830.3281" y1="460" y2="500" id="linearGradient20" spreadMethod="reflect">
        <stop stop-opacity="1" stop-color="rgb(232,238,247)" offset="0%"/>
        <stop stop-opacity="1" stop-color="rgb(183,201,227)" offset="100%"/>
      </linearGradient>
      <linearGradient x1="120.6377" gradientUnits="userSpaceOnUse" x2="260.6533" y1="550" y2="590" id="linearGradient21" spreadMethod="reflect">
        <stop stop-opacity="1" stop-color="rgb(232,238,247)" offset="0%"/>
        <stop stop-opacity="1" stop-color="rgb(183,201,227)" offset="100%"/>
      </linearGradient>
      <linearGradient x1="312.9902" gradientUnits="userSpaceOnUse" x2="467.0098" y1="550" y2="590" id="linearGradient22" spreadMethod="reflect">
        <stop stop-opacity="1" stop-color="rgb(232,238,247)" offset="0%"/>
        <stop stop-opacity="1" stop-color="rgb(183,201,227)" offset="100%"/>
      </linearGradient>
      <linearGradient x1="523.2998" gradientUnits="userSpaceOnUse" x2="640.0078" y1="550" y2="590" id="linearGradient23" spreadMethod="reflect">
        <stop stop-opacity="1" stop-color="rgb(232,238,247)" offset="0%"/>
        <stop stop-opacity="1" stop-color="rgb(183,201,227)" offset="100%"/>
      </linearGradient>
      <linearGradient x1="702.8171" gradientUnits="userSpaceOnUse" x2="822.8835" y1="550" y2="590" id="linearGradient24" spreadMethod="reflect">
        <stop stop-opacity="1" stop-color="rgb(232,238,247)" offset="0%"/>
        <stop stop-opacity="1" stop-color="rgb(183,201,227)" offset="100%"/>
      </linearGradient>
      <linearGradient x1="120.6377" gradientUnits="userSpaceOnUse" x2="260.6533" y1="630" y2="670" id="linearGradient25" spreadMethod="reflect">
        <stop stop-opacity="1" stop-color="rgb(232,238,247)" offset="0%"/>
        <stop stop-opacity="1" stop-color="rgb(183,201,227)" offset="100%"/>
      </linearGradient>
      <linearGradient x1="312.9902" gradientUnits="userSpaceOnUse" x2="467.0098" y1="630" y2="670" id="linearGradient26" spreadMethod="reflect">
        <stop stop-opacity="1" stop-color="rgb(232,238,247)" offset="0%"/>
        <stop stop-opacity="1" stop-color="rgb(183,201,227)" offset="100%"/>
      </linearGradient>
      <linearGradient x1="520.6375" gradientUnits="userSpaceOnUse" x2="642.6702" y1="630" y2="670" id="linearGradient27" spreadMethod="reflect">
        <stop stop-opacity="1" stop-color="rgb(232,238,247)" offset="0%"/>
        <stop stop-opacity="1" stop-color="rgb(183,201,227)" offset="100%"/>
      </linearGradient>
      <linearGradient x1="727.1599" gradientUnits="userSpaceOnUse" x2="798.5408" y1="620" y2="660" id="linearGradient28" spreadMethod="reflect">
        <stop stop-opacity="1" stop-color="rgb(232,238,247)" offset="0%"/>
        <stop stop-opacity="1" stop-color="rgb(183,201,227)" offset="100%"/>
      </linearGradient>
      <clipPath clipPathUnits="userSpaceOnUse" id="clipPath1">
        <path d="M0 0 L743 0 L743 630 L0 630 L0 0 Z"/>
      </clipPath>
      <clipPath clipPathUnits="userSpaceOnUse" id="clipPath2">
        <path d="M105 55 L848 55 L848 685 L105 685 L105 55 Z"/>
      </clipPath>
    </defs>
    <g fill="white" text-rendering="geometricPrecision" shape-rendering="geometricPrecision" transform="translate(-105,-55)" stroke="white">
      <rect x="105" width="743" height="630" y="55" clip-path="url(#clipPath2)" stroke="none"/>
    </g>
    <g fill="rgb(236,236,236)" text-rendering="geometricPrecision" shape-rendering="geometricPrecision" stroke="rgb(236,236,236)">
      <line y2="630" fill="none" x1="-45" clip-path="url(#clipPath1)" x2="-45" y1="0"/>
      <line y2="630" fill="none" x1="-15" clip-path="url(#clipPath1)" x2="-15" y1="0"/>
      <line y2="630" fill="none" x1="15" clip-path="url(#clipPath1)" x2="15" y1="0"/>
      <line y2="630" fill="none" x1="45" clip-path="url(#clipPath1)" x2="45" y1="0"/>
      <line y2="630" fill="none" x1="75" clip-path="url(#clipPath1)" x2="75" y1="0"/>
      <line y2="630" fill="none" x1="105" clip-path="url(#clipPath1)" x2="105" y1="0"/>
      <line y2="630" fill="none" x1="135" clip-path="url(#clipPath1)" x2="135" y1="0"/>
      <line y2="630" fill="none" x1="165" clip-path="url(#clipPath1)" x2="165" y1="0"/>
      <line y2="630" fill="none" x1="195" clip-path="url(#clipPath1)" x2="195" y1="0"/>
      <line y2="630" fill="none" x1="225" clip-path="url(#clipPath1)" x2="225" y1="0"/>
      <line y2="630" fill="none" x1="255" clip-path="url(#clipPath1)" x2="255" y1="0"/>
      <line y2="630" fill="none" x1="285" clip-path="url(#clipPath1)" x2="285" y1="0"/>
      <line y2="630" fill="none" x1="315" clip-path="url(#clipPath1)" x2="315" y1="0"/>
      <line y2="630" fill="none" x1="345" clip-path="url(#clipPath1)" x2="345" y1="0"/>
      <line y2="630" fill="none" x1="375" clip-path="url(#clipPath1)" x2="375" y1="0"/>
      <line y2="630" fill="none" x1="405" clip-path="url(#clipPath1)" x2="405" y1="0"/>
      <line y2="630" fill="none" x1="435" clip-path="url(#clipPath1)" x2="435" y1="0"/>
      <line y2="630" fill="none" x1="465" clip-path="url(#clipPath1)" x2="465" y1="0"/>
      <line y2="630" fill="none" x1="495" clip-path="url(#clipPath1)" x2="495" y1="0"/>
      <line y2="630" fill="none" x1="525" clip-path="url(#clipPath1)" x2="525" y1="0"/>
      <line y2="630" fill="none" x1="555" clip-path="url(#clipPath1)" x2="555" y1="0"/>
      <line y2="630" fill="none" x1="585" clip-path="url(#clipPath1)" x2="585" y1="0"/>
      <line y2="630" fill="none" x1="615" clip-path="url(#clipPath1)" x2="615" y1="0"/>
      <line y2="630" fill="none" x1="645" clip-path="url(#clipPath1)" x2="645" y1="0"/>
      <line y2="630" fill="none" x1="675" clip-path="url(#clipPath1)" x2="675" y1="0"/>
      <line y2="630" fill="none" x1="705" clip-path="url(#clipPath1)" x2="705" y1="0"/>
      <line y2="630" fill="none" x1="735" clip-path="url(#clipPath1)" x2="735" y1="0"/>
      <line y2="630" fill="none" x1="765" clip-path="url(#clipPath1)" x2="765" y1="0"/>
      <line y2="-55" fill="none" x1="0" clip-path="url(#clipPath1)" x2="743" y1="-55"/>
      <line y2="-25" fill="none" x1="0" clip-path="url(#clipPath1)" x2="743" y1="-25"/>
      <line y2="5" fill="none" x1="0" clip-path="url(#clipPath1)" x2="743" y1="5"/>
      <line y2="35" fill="none" x1="0" clip-path="url(#clipPath1)" x2="743" y1="35"/>
      <line y2="65" fill="none" x1="0" clip-path="url(#clipPath1)" x2="743" y1="65"/>
      <line y2="95" fill="none" x1="0" clip-path="url(#clipPath1)" x2="743" y1="95"/>
      <line y2="125" fill="none" x1="0" clip-path="url(#clipPath1)" x2="743" y1="125"/>
      <line y2="155" fill="none" x1="0" clip-path="url(#clipPath1)" x2="743" y1="155"/>
      <line y2="185" fill="none" x1="0" clip-path="url(#clipPath1)" x2="743" y1="185"/>
      <line y2="215" fill="none" x1="0" clip-path="url(#clipPath1)" x2="743" y1="215"/>
      <line y2="245" fill="none" x1="0" clip-path="url(#clipPath1)" x2="743" y1="245"/>
      <line y2="275" fill="none" x1="0" clip-path="url(#clipPath1)" x2="743" y1="275"/>
      <line y2="305" fill="none" x1="0" clip-path="url(#clipPath1)" x2="743" y1="305"/>
      <line y2="335" fill="none" x1="0" clip-path="url(#clipPath1)" x2="743" y1="335"/>
      <line y2="365" fill="none" x1="0" clip-path="url(#clipPath1)" x2="743" y1="365"/>
      <line y2="395" fill="none" x1="0" clip-path="url(#clipPath1)" x2="743" y1="395"/>
      <line y2="425" fill="none" x1="0" clip-path="url(#clipPath1)" x2="743" y1="425"/>
      <line y2="455" fill="none" x1="0" clip-path="url(#clipPath1)" x2="743" y1="455"/>
      <line y2="485" fill="none" x1="0" clip-path="url(#clipPath1)" x2="743" y1="485"/>
      <line y2="515" fill="none" x1="0" clip-path="url(#clipPath1)" x2="743" y1="515"/>
      <line y2="545" fill="none" x1="0" clip-path="url(#clipPath1)" x2="743" y1="545"/>
      <line y2="575" fill="none" x1="0" clip-path="url(#clipPath1)" x2="743" y1="575"/>
      <line y2="605" fill="none" x1="0" clip-path="url(#clipPath1)" x2="743" y1="605"/>
      <line y2="635" fill="none" x1="0" clip-path="url(#clipPath1)" x2="743" y1="635"/>
    </g>
    <g fill="url(#linearGradient1)" text-rendering="geometricPrecision" shape-rendering="geometricPrecision" transform="matrix(1,0,0,1,-105,-55)" stroke="url(#linearGradient1)">
      <ellipse rx="67.1738" ry="20" clip-path="url(#clipPath2)" cx="193.4795" cy="90" stroke="none"/>
    </g>
    <g text-rendering="geometricPrecision" stroke-miterlimit="1.45" shape-rendering="geometricPrecision" transform="matrix(1,0,0,1,-105,-55)" stroke-linecap="butt">
      <ellipse rx="67.1738" fill="none" ry="20" clip-path="url(#clipPath2)" cx="193.4795" cy="90"/>
      <text x="177.4717" xml:space="preserve" y="94.7139" clip-path="url(#clipPath2)" font-family="sans-serif" stroke="none">Start1</text>
    </g>
    <g fill="url(#linearGradient2)" text-rendering="geometricPrecision" shape-rendering="geometricPrecision" transform="matrix(1,0,0,1,-105,-55)" stroke="url(#linearGradient2)">
      <circle r="25" clip-path="url(#clipPath2)" cx="390" cy="95" stroke="none"/>
    </g>
    <g text-rendering="geometricPrecision" stroke-miterlimit="1.45" shape-rendering="geometricPrecision" transform="matrix(1,0,0,1,-105,-55)" stroke-linecap="butt">
      <circle fill="none" r="25" clip-path="url(#clipPath2)" cx="390" cy="95"/>
      <text x="373.9922" xml:space="preserve" y="99.7139" clip-path="url(#clipPath2)" font-family="sans-serif" stroke="none">Start2</text>
    </g>
    <g fill="url(#linearGradient3)" text-rendering="geometricPrecision" shape-rendering="geometricPrecision" transform="matrix(1,0,0,1,-105,-55)" stroke="url(#linearGradient3)">
      <rect x="499.9922" y="70" clip-path="url(#clipPath2)" width="140.0156" rx="20" ry="20" height="40" stroke="none"/>
    </g>
    <g text-rendering="geometricPrecision" stroke-miterlimit="1.45" shape-rendering="geometricPrecision" transform="matrix(1,0,0,1,-105,-55)" stroke-linecap="butt">
      <rect x="499.9922" y="70" clip-path="url(#clipPath2)" fill="none" width="140.0156" rx="20" ry="20" height="40"/>
      <text x="553.9922" xml:space="preserve" y="94.7139" clip-path="url(#clipPath2)" font-family="sans-serif" stroke="none">Start3</text>
    </g>
    <g fill="url(#linearGradient4)" text-rendering="geometricPrecision" shape-rendering="geometricPrecision" transform="matrix(1,0,0,1,-105,-55)" stroke="url(#linearGradient4)">
      <path d="M698.4932 70 L832.8408 70 L832.8408 110 L698.4932 110 Z" stroke="none" clip-path="url(#clipPath2)"/>
    </g>
    <g text-rendering="geometricPrecision" stroke-miterlimit="1.45" shape-rendering="geometricPrecision" transform="matrix(1,0,0,1,-105,-55)" stroke-linecap="butt">
      <path fill="none" d="M698.4932 70 L832.8408 70 L832.8408 110 L698.4932 110 Z" clip-path="url(#clipPath2)"/>
      <text x="743.9932" xml:space="preserve" y="94.7139" clip-path="url(#clipPath2)" font-family="sans-serif" stroke="none">Process</text>
    </g>
    <g fill="url(#linearGradient5)" text-rendering="geometricPrecision" shape-rendering="geometricPrecision" transform="matrix(1,0,0,1,-105,-55)" stroke="url(#linearGradient5)">
      <rect x="120.6377" width="140.0156" height="40" y="160" clip-path="url(#clipPath2)" stroke="none"/>
    </g>
    <g text-rendering="geometricPrecision" stroke-miterlimit="1.45" shape-rendering="geometricPrecision" transform="matrix(1,0,0,1,-105,-55)" stroke-linecap="butt">
      <rect fill="none" x="120.6377" width="140.0156" height="40" y="160" clip-path="url(#clipPath2)"/>
      <path fill="none" d="M130.6377 160 L130.6377 200 M250.6533 160 L250.6533 200 M130.6377 160 Z" clip-path="url(#clipPath2)"/>
      <text x="138.2832" xml:space="preserve" y="184.7139" clip-path="url(#clipPath2)" font-family="sans-serif" stroke="none">Predefined Process</text>
    </g>
    <g fill="url(#linearGradient6)" text-rendering="geometricPrecision" shape-rendering="geometricPrecision" transform="matrix(1,0,0,1,-105,-55)" stroke="url(#linearGradient6)">
      <path d="M390 160 L467.0098 180 L390 200 L312.9902 180 Z" stroke="none" clip-path="url(#clipPath2)"/>
    </g>
    <g text-rendering="geometricPrecision" stroke-miterlimit="1.45" shape-rendering="geometricPrecision" transform="matrix(1,0,0,1,-105,-55)" stroke-linecap="butt">
      <path fill="none" d="M390 160 L467.0098 180 L390 200 L312.9902 180 Z" clip-path="url(#clipPath2)"/>
      <text x="366.9902" xml:space="preserve" y="184.7139" clip-path="url(#clipPath2)" font-family="sans-serif" stroke="none">Decision</text>
    </g>
    <g fill="url(#linearGradient7)" text-rendering="geometricPrecision" shape-rendering="geometricPrecision" transform="matrix(1,0,0,1,-105,-55)" stroke="url(#linearGradient7)">
      <path d="M529.3467 160 L638.6689 160 L648.6689 170 L648.6689 200 L519.3467 200 L519.3467 170 Z" stroke="none" clip-path="url(#clipPath2)"/>
    </g>
    <g text-rendering="geometricPrecision" stroke-miterlimit="1.45" shape-rendering="geometricPrecision" transform="matrix(1,0,0,1,-105,-55)" stroke-linecap="butt">
      <path fill="none" d="M529.3467 160 L638.6689 160 L648.6689 170 L648.6689 200 L519.3467 200 L519.3467 170 Z" clip-path="url(#clipPath2)"/>
      <text x="553.6475" xml:space="preserve" y="184.7139" clip-path="url(#clipPath2)" font-family="sans-serif" stroke="none">Begin Loop</text>
    </g>
    <g fill="url(#linearGradient8)" text-rendering="geometricPrecision" shape-rendering="geometricPrecision" transform="matrix(1,0,0,1,-105,-55)" stroke="url(#linearGradient8)">
      <path d="M701.0059 160 L830.3281 160 L830.3281 190 L820.3281 200 L711.0059 200 L701.0059 190 Z" stroke="none" clip-path="url(#clipPath2)"/>
    </g>
    <g text-rendering="geometricPrecision" stroke-miterlimit="1.45" shape-rendering="geometricPrecision" transform="matrix(1,0,0,1,-105,-55)" stroke-linecap="butt">
      <path fill="none" d="M701.0059 160 L830.3281 160 L830.3281 190 L820.3281 200 L711.0059 200 L701.0059 190 Z" clip-path="url(#clipPath2)"/>
      <text x="739.9766" xml:space="preserve" y="184.7139" clip-path="url(#clipPath2)" font-family="sans-serif" stroke="none">End Loop</text>
    </g>
    <g fill="url(#linearGradient9)" text-rendering="geometricPrecision" shape-rendering="geometricPrecision" transform="matrix(1,0,0,1,-105,-55)" stroke="url(#linearGradient9)">
      <path d="M120.6377 250 L260.6533 250 L260.6533 285 Q225.6494 275 190.6455 285 Q155.6416 295 120.6377 285 Z" stroke="none" clip-path="url(#clipPath2)"/>
    </g>
    <g text-rendering="geometricPrecision" stroke-miterlimit="1.45" shape-rendering="geometricPrecision" transform="matrix(1,0,0,1,-105,-55)" stroke-linecap="butt">
      <path fill="none" d="M120.6377 250 L260.6533 250 L260.6533 285 Q225.6494 275 190.6455 285 Q155.6416 295 120.6377 285 Z" clip-path="url(#clipPath2)"/>
      <text x="163.2998" xml:space="preserve" y="274.7139" clip-path="url(#clipPath2)" font-family="sans-serif" stroke="none">Document</text>
    </g>
    <g fill="url(#linearGradient10)" text-rendering="geometricPrecision" shape-rendering="geometricPrecision" transform="matrix(1,0,0,1,-105,-55)" stroke="url(#linearGradient10)">
      <path d="M323.1902 250 L467.0098 250 L456.8098 290 L312.9902 290 Z" stroke="none" clip-path="url(#clipPath2)"/>
    </g>
    <g text-rendering="geometricPrecision" stroke-miterlimit="1.45" shape-rendering="geometricPrecision" transform="matrix(1,0,0,1,-105,-55)" stroke-linecap="butt">
      <path fill="none" d="M323.1902 250 L467.0098 250 L456.8098 290 L312.9902 290 Z" clip-path="url(#clipPath2)"/>
      <text x="377.3262" xml:space="preserve" y="274.7139" clip-path="url(#clipPath2)" font-family="sans-serif" stroke="none">Data</text>
    </g>
    <g fill="url(#linearGradient11)" text-rendering="geometricPrecision" shape-rendering="geometricPrecision" transform="matrix(1,0,0,1,-105,-55)" stroke="url(#linearGradient11)">
      <path d="M524.3467 250 L643.6689 250 Q653.6689 270 643.6689 290 L524.3467 290 Q514.3467 270 524.3467 250 Z" stroke="none" clip-path="url(#clipPath2)"/>
    </g>
    <g text-rendering="geometricPrecision" stroke-miterlimit="1.45" shape-rendering="geometricPrecision" transform="matrix(1,0,0,1,-105,-55)" stroke-linecap="butt">
      <path fill="none" d="M524.3467 250 L643.6689 250 Q653.6689 270 643.6689 290 L524.3467 290 Q514.3467 270 524.3467 250 Z" clip-path="url(#clipPath2)"/>
      <path fill="none" d="M643.6689 250 Q633.6689 270 643.6689 290" clip-path="url(#clipPath2)"/>
      <text x="532.9932" xml:space="preserve" y="274.7139" clip-path="url(#clipPath2)" font-family="sans-serif" stroke="none">Direct Access Data</text>
    </g>
    <g fill="url(#linearGradient12)" text-rendering="geometricPrecision" shape-rendering="geometricPrecision" transform="matrix(1,0,0,1,-105,-55)" stroke="url(#linearGradient12)">
      <path d="M706.0059 250 L830.3281 250 Q820.3281 270 830.3281 290 L706.0059 290 Q696.0059 270 706.0059 250 Z" stroke="none" clip-path="url(#clipPath2)"/>
    </g>
    <g text-rendering="geometricPrecision" stroke-miterlimit="1.45" shape-rendering="geometricPrecision" transform="matrix(1,0,0,1,-105,-55)" stroke-linecap="butt">
      <path fill="none" d="M706.0059 250 L830.3281 250 Q820.3281 270 830.3281 290 L706.0059 290 Q696.0059 270 706.0059 250 Z" clip-path="url(#clipPath2)"/>
      <text x="733.6484" xml:space="preserve" y="274.7139" clip-path="url(#clipPath2)" font-family="sans-serif" stroke="none">Stored Data</text>
    </g>
    <g fill="url(#linearGradient13)" text-rendering="geometricPrecision" shape-rendering="geometricPrecision" transform="matrix(1,0,0,1,-105,-55)" stroke="url(#linearGradient13)">
      <circle r="46.5" clip-path="url(#clipPath2)" cx="190.6455" cy="379.5" stroke="none"/>
    </g>
    <g text-rendering="geometricPrecision" stroke-miterlimit="1.45" shape-rendering="geometricPrecision" transform="matrix(1,0,0,1,-105,-55)" stroke-linecap="butt">
      <circle fill="none" r="46.5" clip-path="url(#clipPath2)" cx="190.6455" cy="379.5"/>
      <line y2="426" fill="none" x1="190.6455" clip-path="url(#clipPath2)" x2="237.1455" y1="426"/>
      <text x="147.9482" xml:space="preserve" y="384.2139" clip-path="url(#clipPath2)" font-family="sans-serif" stroke="none">Sequential Data</text>
    </g>
    <g fill="url(#linearGradient14)" text-rendering="geometricPrecision" shape-rendering="geometricPrecision" transform="matrix(1,0,0,1,-105,-55)" stroke="url(#linearGradient14)">
      <path d="M312.9902 357.2 C317.6108 340 462.3892 340 467.0098 357.2 L467.0098 408.8 C462.3892 426 317.6108 426 312.9902 408.8 Z" stroke="none" clip-path="url(#clipPath2)"/>
    </g>
    <g text-rendering="geometricPrecision" stroke-miterlimit="1.45" shape-rendering="geometricPrecision" transform="matrix(1,0,0,1,-105,-55)" stroke-linecap="butt">
      <path fill="none" d="M312.9902 357.2 C317.6108 340 462.3892 340 467.0098 357.2 L467.0098 408.8 C462.3892 426 317.6108 426 312.9902 408.8 Z" clip-path="url(#clipPath2)"/>
      <path fill="none" d="M467.0098 357.2 C462.3892 374.4 317.6108 374.4 312.9902 357.2" clip-path="url(#clipPath2)"/>
      <text x="364.3154" xml:space="preserve" y="387.7139" clip-path="url(#clipPath2)" font-family="sans-serif" stroke="none">Database</text>
    </g>
    <g fill="url(#linearGradient15)" text-rendering="geometricPrecision" shape-rendering="geometricPrecision" transform="matrix(1,0,0,1,-105,-55)" stroke="url(#linearGradient15)">
      <rect x="523.2998" width="125.3691" height="78.4" y="340" clip-path="url(#clipPath2)" stroke="none"/>
    </g>
    <g text-rendering="geometricPrecision" stroke-miterlimit="1.45" shape-rendering="geometricPrecision" transform="matrix(1,0,0,1,-105,-55)" stroke-linecap="butt">
      <rect fill="none" x="523.2998" width="125.3691" height="78.4" y="340" clip-path="url(#clipPath2)"/>
      <path fill="none" d="M533.2998 340 L533.2998 418.4 M523.2998 350 L648.6689 350 M533.2998 340 Z" clip-path="url(#clipPath2)"/>
      <text x="543.29" xml:space="preserve" y="383.9139" clip-path="url(#clipPath2)" font-family="sans-serif" stroke="none">Internal Storage</text>
    </g>
    <g fill="url(#linearGradient16)" text-rendering="geometricPrecision" shape-rendering="geometricPrecision" transform="matrix(1,0,0,1,-105,-55)" stroke="url(#linearGradient16)">
      <path d="M704.959 343 L830.3281 333 L830.3281 418.4 L704.959 418.4 Z" stroke="none" clip-path="url(#clipPath2)"/>
    </g>
    <g text-rendering="geometricPrecision" stroke-miterlimit="1.45" shape-rendering="geometricPrecision" transform="matrix(1,0,0,1,-105,-55)" stroke-linecap="butt">
      <path fill="none" d="M704.959 343 L830.3281 333 L830.3281 418.4 L704.959 418.4 Z" clip-path="url(#clipPath2)"/>
      <text x="732.9531" xml:space="preserve" y="380.4139" clip-path="url(#clipPath2)" font-family="sans-serif" stroke="none">Manual Input</text>
    </g>
    <g fill="url(#linearGradient17)" text-rendering="geometricPrecision" shape-rendering="geometricPrecision" transform="matrix(1,0,0,1,-105,-55)" stroke="url(#linearGradient17)">
      <path d="M130.6377 465 L260.6533 465 L260.6533 505 L120.6377 505 L120.6377 475 Z" stroke="none" clip-path="url(#clipPath2)"/>
    </g>
    <g text-rendering="geometricPrecision" stroke-miterlimit="1.45" shape-rendering="geometricPrecision" transform="matrix(1,0,0,1,-105,-55)" stroke-linecap="butt">
      <path fill="none" d="M130.6377 465 L260.6533 465 L260.6533 505 L120.6377 505 L120.6377 475 Z" clip-path="url(#clipPath2)"/>
      <text x="177.6406" xml:space="preserve" y="489.7139" clip-path="url(#clipPath2)" font-family="sans-serif" stroke="none">Card</text>
    </g>
    <g fill="url(#linearGradient18)" text-rendering="geometricPrecision" shape-rendering="geometricPrecision" transform="matrix(1,0,0,1,-105,-55)" stroke="url(#linearGradient18)">
      <path d="M312.9902 470 Q351.4951 480 390 470 Q428.5049 460 467.0098 470 L467.0098 500 Q428.5049 490 390 500 Q351.4951 510 312.9902 500 Z" stroke="none" clip-path="url(#clipPath2)"/>
    </g>
    <g text-rendering="geometricPrecision" stroke-miterlimit="1.45" shape-rendering="geometricPrecision" transform="matrix(1,0,0,1,-105,-55)" stroke-linecap="butt">
      <path fill="none" d="M312.9902 470 Q351.4951 480 390 470 Q428.5049 460 467.0098 470 L467.0098 500 Q428.5049 490 390 500 Q351.4951 510 312.9902 500 Z" clip-path="url(#clipPath2)"/>
      <text x="358.6465" xml:space="preserve" y="489.7139" clip-path="url(#clipPath2)" font-family="sans-serif" stroke="none">Paper Tape</text>
    </g>
    <g fill="url(#linearGradient19)" text-rendering="geometricPrecision" shape-rendering="geometricPrecision" transform="matrix(1,0,0,1,-105,-55)" stroke="url(#linearGradient19)">
      <path d="M535.512 486.5 C519.3467 472.5 535.512 460 562.023 469 C562.023 460 605.9926 460 605.9926 469 C632.5037 460 648.6689 472.5 632.5037 483.5 C648.6689 497.5 632.5037 510 612.4587 501 C605.9926 510 562.023 510 568.4891 501 C535.512 510 519.3467 497.5 535.512 486.5 Z" stroke="none" clip-path="url(#clipPath2)"/>
    </g>
    <g text-rendering="geometricPrecision" stroke-miterlimit="1.45" shape-rendering="geometricPrecision" transform="matrix(1,0,0,1,-105,-55)" stroke-linecap="butt">
      <path fill="none" d="M535.512 486.5 C519.3467 472.5 535.512 460 562.023 469 C562.023 460 605.9926 460 605.9926 469 C632.5037 460 648.6689 472.5 632.5037 483.5 C648.6689 497.5 632.5037 510 612.4587 501 C605.9926 510 562.023 510 568.4891 501 C535.512 510 519.3467 497.5 535.512 486.5 Z" clip-path="url(#clipPath2)"/>
      <text x="568.3311" xml:space="preserve" y="489.7139" clip-path="url(#clipPath2)" font-family="sans-serif" stroke="none">Cloud</text>
    </g>
    <g fill="url(#linearGradient20)" text-rendering="geometricPrecision" shape-rendering="geometricPrecision" transform="matrix(1,0,0,1,-105,-55)" stroke="url(#linearGradient20)">
      <path d="M704.959 460 L825.3281 460 Q835.3281 480 825.3281 500 L704.959 500 Z" stroke="none" clip-path="url(#clipPath2)"/>
    </g>
    <g text-rendering="geometricPrecision" stroke-miterlimit="1.45" shape-rendering="geometricPrecision" transform="matrix(1,0,0,1,-105,-55)" stroke-linecap="butt">
      <path fill="none" d="M704.959 460 L825.3281 460 Q835.3281 480 825.3281 500 L704.959 500 Z" clip-path="url(#clipPath2)"/>
      <text x="752.3037" xml:space="preserve" y="484.7139" clip-path="url(#clipPath2)" font-family="sans-serif" stroke="none">Delay</text>
    </g>
    <g fill="url(#linearGradient21)" text-rendering="geometricPrecision" shape-rendering="geometricPrecision" transform="matrix(1,0,0,1,-105,-55)" stroke="url(#linearGradient21)">
      <path d="M120.6377 570 Q125.6377 555 140.6377 550 L255.6533 550 Q265.6533 570 255.6533 590 L140.6377 590 Q125.6377 585 120.6377 570" stroke="none" clip-path="url(#clipPath2)"/>
    </g>
    <g text-rendering="geometricPrecision" stroke-miterlimit="1.45" shape-rendering="geometricPrecision" transform="matrix(1,0,0,1,-105,-55)" stroke-linecap="butt">
      <path fill="none" d="M120.6377 570 Q125.6377 555 140.6377 550 L255.6533 550 Q265.6533 570 255.6533 590 L140.6377 590 Q125.6377 585 120.6377 570" clip-path="url(#clipPath2)"/>
      <text x="170.9727" xml:space="preserve" y="574.7139" clip-path="url(#clipPath2)" font-family="sans-serif" stroke="none">Display</text>
    </g>
    <g fill="url(#linearGradient22)" text-rendering="geometricPrecision" shape-rendering="geometricPrecision" transform="matrix(1,0,0,1,-105,-55)" stroke="url(#linearGradient22)">
      <path d="M312.9902 550 L467.0098 550 L457.0098 590 L322.9902 590 Z" stroke="none" clip-path="url(#clipPath2)"/>
    </g>
    <g text-rendering="geometricPrecision" stroke-miterlimit="1.45" shape-rendering="geometricPrecision" transform="matrix(1,0,0,1,-105,-55)" stroke-linecap="butt">
      <path fill="none" d="M312.9902 550 L467.0098 550 L457.0098 590 L322.9902 590 Z" clip-path="url(#clipPath2)"/>
      <text x="342.3047" xml:space="preserve" y="574.7139" clip-path="url(#clipPath2)" font-family="sans-serif" stroke="none">Manual Operation</text>
    </g>
    <g fill="url(#linearGradient23)" text-rendering="geometricPrecision" shape-rendering="geometricPrecision" transform="matrix(1,0,0,1,-105,-55)" stroke="url(#linearGradient23)">
      <path d="M533.2998 550 L630.0078 550 L640.0078 570 L630.0078 590 L533.2998 590 L523.2998 570 Z" stroke="none" clip-path="url(#clipPath2)"/>
    </g>
    <g text-rendering="geometricPrecision" stroke-miterlimit="1.45" shape-rendering="geometricPrecision" transform="matrix(1,0,0,1,-105,-55)" stroke-linecap="butt">
      <path fill="none" d="M533.2998 550 L630.0078 550 L640.0078 570 L630.0078 590 L533.2998 590 L523.2998 570 Z" clip-path="url(#clipPath2)"/>
      <text x="550.6343" xml:space="preserve" y="574.7139" clip-path="url(#clipPath2)" font-family="sans-serif" stroke="none">Preparation</text>
    </g>
    <g fill="url(#linearGradient24)" text-rendering="geometricPrecision" shape-rendering="geometricPrecision" transform="matrix(1,0,0,1,-105,-55)" stroke="url(#linearGradient24)">
      <circle r="20" clip-path="url(#clipPath2)" cx="762.8503" cy="570" stroke="none"/>
    </g>
    <g text-rendering="geometricPrecision" stroke-miterlimit="1.45" shape-rendering="geometricPrecision" transform="matrix(1,0,0,1,-105,-55)" stroke-linecap="butt">
      <circle fill="none" r="20" clip-path="url(#clipPath2)" cx="762.8503" cy="570"/>
      <text x="709.8171" xml:space="preserve" y="574.7139" clip-path="url(#clipPath2)" font-family="sans-serif" stroke="none">On Page Reference</text>
    </g>
    <g fill="url(#linearGradient25)" text-rendering="geometricPrecision" shape-rendering="geometricPrecision" transform="matrix(1,0,0,1,-105,-55)" stroke="url(#linearGradient25)">
      <path d="M170.6455 630 L210.6455 630 L210.6455 650 L190.6455 670 L170.6455 650 Z" stroke="none" clip-path="url(#clipPath2)"/>
    </g>
    <g text-rendering="geometricPrecision" stroke-miterlimit="1.45" shape-rendering="geometricPrecision" transform="matrix(1,0,0,1,-105,-55)" stroke-linecap="butt">
      <path fill="none" d="M170.6455 630 L210.6455 630 L210.6455 650 L190.6455 670 L170.6455 650 Z" clip-path="url(#clipPath2)"/>
      <text x="137.6152" xml:space="preserve" y="654.7139" clip-path="url(#clipPath2)" font-family="sans-serif" stroke="none">Off Page Reference</text>
    </g>
    <g fill="url(#linearGradient26)" text-rendering="geometricPrecision" shape-rendering="geometricPrecision" transform="matrix(1,0,0,1,-105,-55)" stroke="url(#linearGradient26)">
      <path d="M312.9902 630 L457.0098 630 L467.0098 650 L457.0098 670 L312.9902 670 Z" stroke="none" clip-path="url(#clipPath2)"/>
    </g>
    <g text-rendering="geometricPrecision" stroke-miterlimit="1.45" shape-rendering="geometricPrecision" transform="matrix(1,0,0,1,-105,-55)" stroke-linecap="butt">
      <path fill="none" d="M312.9902 630 L457.0098 630 L467.0098 650 L457.0098 670 L312.9902 670 Z" clip-path="url(#clipPath2)"/>
      <text x="351.3193" xml:space="preserve" y="654.7139" clip-path="url(#clipPath2)" font-family="sans-serif" stroke="none">User Message</text>
    </g>
    <g fill="url(#linearGradient27)" text-rendering="geometricPrecision" shape-rendering="geometricPrecision" transform="matrix(1,0,0,1,-105,-55)" stroke="url(#linearGradient27)">
      <path d="M520.6375 630 L642.6702 630 L642.6702 670 L520.6375 670 L530.6375 650 Z" stroke="none" clip-path="url(#clipPath2)"/>
    </g>
    <g text-rendering="geometricPrecision" stroke-miterlimit="1.45" shape-rendering="geometricPrecision" transform="matrix(1,0,0,1,-105,-55)" stroke-linecap="butt">
      <path fill="none" d="M520.6375 630 L642.6702 630 L642.6702 670 L520.6375 670 L530.6375 650 Z" clip-path="url(#clipPath2)"/>
      <text x="533.6362" xml:space="preserve" y="654.7139" clip-path="url(#clipPath2)" font-family="sans-serif" stroke="none">Network Message</text>
    </g>
    <g fill="url(#linearGradient28)" text-rendering="geometricPrecision" shape-rendering="geometricPrecision" transform="matrix(1,0,0,1,-105,-55)" stroke="url(#linearGradient28)">
      <rect x="727.1599" width="71.3809" height="40" y="620" clip-path="url(#clipPath2)" stroke="none"/>
    </g>
    <g text-rendering="geometricPrecision" stroke-miterlimit="1.45" shape-rendering="geometricPrecision" transform="matrix(1,0,0,1,-105,-55)" stroke-linecap="butt">
      <path fill="none" d="M736.0825 620 L727.1599 620 L727.1599 660 L736.0825 660" clip-path="url(#clipPath2)"/>
      <text x="734.1599" xml:space="preserve" y="644.7139" clip-path="url(#clipPath2)" font-family="sans-serif" stroke="none">Annotation</text>
    </g>
  </g>
</svg>
