<?xml version="1.0" encoding="UTF-8" standalone="no"?>
<!DOCTYPE svg PUBLIC "-//W3C//DTD SVG 1.1//EN"
 "http://www.w3.org/Graphics/SVG/1.1/DTD/svg11.dtd">
<!-- Generated by graphviz version 2.26.0 (20091210.2329)
 -->
<!-- Title: Directed Graph Pages: 1 -->
<svg width="89pt" height="194pt"
 viewBox="0.00 0.00 89.00 194.00" xmlns="http://www.w3.org/2000/svg" xmlns:xlink="http://www.w3.org/1999/xlink">
<g id="graph1" class="graph" transform="scale(1 1) rotate(0) translate(4 190)">
<title>Directed Graph</title>
<polygon fill="white" stroke="white" points="-4,5 -4,-190 86,-190 86,5 -4,5"/>
<!-- 1 -->
<g id="node1" class="node"><title>1</title>
<ellipse fill="none" stroke="black" cx="54" cy="-167" rx="27" ry="19.0919"/>
<text text-anchor="middle" x="54" y="-163.9" font-family="Times Roman,serif" font-size="14.00">1</text>
</g>
<!-- 2 -->
<g id="node2" class="node"><title>2</title>
<ellipse fill="none" stroke="black" cx="27" cy="-93" rx="27" ry="19.0919"/>
<text text-anchor="middle" x="27" y="-89.9" font-family="Times Roman,serif" font-size="14.00">2</text>
</g>
<!-- 1&#45;&gt;2 -->
<g id="edge2" class="edge"><title>1&#45;&gt;2</title>
<path fill="none" stroke="black" d="M47.1868,-148.327C44.158,-140.026 40.5285,-130.078 37.1876,-120.921"/>
<polygon fill="black" stroke="black" points="40.4332,-119.606 33.7175,-111.411 33.8572,-122.005 40.4332,-119.606"/>
</g>
<!-- 3 -->
<g id="node3" class="node"><title>3</title>
<ellipse fill="none" stroke="black" cx="54" cy="-19" rx="27" ry="19.0919"/>
<text text-anchor="middle" x="54" y="-15.9" font-family="Times Roman,serif" font-size="14.00">3</text>
</g>
<!-- 1&#45;&gt;3 -->
<g id="edge4" class="edge"><title>1&#45;&gt;3</title>
<path fill="none" stroke="black" d="M57.8885,-148.003C59.8515,-137.45 62.0202,-124.055 63,-112 64.3682,-95.1666 64.3682,-90.8334 63,-74 62.3111,-65.524 61.0344,-56.3851 59.6547,-48.0376"/>
<polygon fill="black" stroke="black" points="63.0681,-47.2392 57.8885,-37.9968 56.1739,-48.452 63.0681,-47.2392"/>
</g>
<!-- 2&#45;&gt;3 -->
<g id="edge6" class="edge"><title>2&#45;&gt;3</title>
<path fill="none" stroke="black" d="M33.8132,-74.3267C36.842,-66.0257 40.4715,-56.0782 43.8124,-46.9214"/>
<polygon fill="black" stroke="black" points="47.1428,-48.0049 47.2825,-37.411 40.5668,-45.6055 47.1428,-48.0049"/>
</g>
</g>
</svg>
